<svg xmlns="http://www.w3.org/2000/svg" width="157.813" height="82.728" viewBox="0 0 157.813 82.728"><g transform="translate(0.497 0.505)"><g transform="translate(69.58 30.653)"><path d="M223.562,86.873a1.177,1.177,0,0,0-1.033-.483h-3.6a2.271,2.271,0,0,0-1.352.447,2.337,2.337,0,0,0-.873,1.21q-.325.921-3.222,9.186H211.3a6.375,6.375,0,0,1-2.824-.575,4.248,4.248,0,0,1-.791-.483,7.719,7.719,0,0,1-2.278-3.215c-.206-.493-1.845-4.453-2.051-4.95a2.373,2.373,0,0,0-2.367-1.622h-3.758a1.036,1.036,0,0,0-.979.5.944.944,0,0,0-.149.554,1.731,1.731,0,0,0,.149.642c.28.642,2.516,5.776,2.8,6.415a14.181,14.181,0,0,0,4.308,5.947,8.307,8.307,0,0,0,2.09,1.082,14.517,14.517,0,0,0,4.911.745h1.529q-1.3,4.609-4.843,4.609H203.1a1.686,1.686,0,0,0-1.21.461c-.163.156-1.49,2.274-1.572,2.4-.444.681-.688,1.352-.394,1.81a.9.9,0,0,0,.82.376l6.649,0a10.885,10.885,0,0,0,6.82-1.9,11.276,11.276,0,0,0,3.648-5.4q.069-.186.653-1.87,4.636-13.269,5.152-14.743a1.549,1.549,0,0,0,.089-.5,1.1,1.1,0,0,0-.2-.642" transform="translate(-196.098 -86.39)" fill="#5dc579"/><path d="M223.562,86.873a1.177,1.177,0,0,0-1.033-.483h-3.6a2.271,2.271,0,0,0-1.352.447,2.337,2.337,0,0,0-.873,1.21q-.325.921-3.222,9.186H211.3a6.375,6.375,0,0,1-2.824-.575,4.248,4.248,0,0,1-.791-.483,7.719,7.719,0,0,1-2.278-3.215c-.206-.493-1.845-4.453-2.051-4.95a2.373,2.373,0,0,0-2.367-1.622h-3.758a1.036,1.036,0,0,0-.979.5.944.944,0,0,0-.149.554,1.731,1.731,0,0,0,.149.642c.28.642,2.516,5.776,2.8,6.415a14.181,14.181,0,0,0,4.308,5.947,8.307,8.307,0,0,0,2.09,1.082,14.517,14.517,0,0,0,4.911.745h1.529q-1.3,4.609-4.843,4.609H203.1a1.686,1.686,0,0,0-1.21.461c-.163.156-1.49,2.274-1.572,2.4-.444.681-.688,1.352-.394,1.81a.9.9,0,0,0,.82.376l6.649,0a10.885,10.885,0,0,0,6.82-1.9,11.276,11.276,0,0,0,3.648-5.4q.069-.186.653-1.87,4.636-13.269,5.152-14.743a1.549,1.549,0,0,0,.089-.5,1.1,1.1,0,0,0-.2-.642" transform="translate(-196.098 -86.39)" fill="rgba(0,0,0,0)" stroke="rgba(0,0,0,0)" stroke-width="1"/></g><g transform="translate(0.001)"><path d="M64.722.245c-.355-.422-.962-.216-1.409.007-.653.326-28.506,13.3-35.865,16.943-4.006,1.98-6.216,5.358-4.449,9.041,2.257,4.708,7.579,15.733,7.579,15.733S1.031,79.029.52,79.8c-.419.632-.7,1.284-.373,1.678.355.419.962.216,1.409-.007.653-.326,43.015-21.36,50.37-25.011a5.347,5.347,0,0,0,2.118-1.891c.7-1.093,1.437-2.228,2.132-3.307a3.847,3.847,0,0,0,.2-3.843c-2.363-4.659-9.016-17.667-9.016-17.667S63.835,2.689,64.349,1.919c.419-.632.7-1.284.373-1.675" transform="translate(-0.004 0)" fill="#f9a81b"/><path d="M64.722.245c-.355-.422-.962-.216-1.409.007-.653.326-28.506,13.3-35.865,16.943-4.006,1.98-6.216,5.358-4.449,9.041,2.257,4.708,7.579,15.733,7.579,15.733S1.031,79.029.52,79.8c-.419.632-.7,1.284-.373,1.678.355.419.962.216,1.409-.007.653-.326,43.015-21.36,50.37-25.011a5.347,5.347,0,0,0,2.118-1.891c.7-1.093,1.437-2.228,2.132-3.307a3.847,3.847,0,0,0,.2-3.843c-2.363-4.659-9.016-17.667-9.016-17.667S63.835,2.689,64.349,1.919c.419-.632.7-1.284.373-1.675" transform="translate(-0.004 0)" fill="rgba(0,0,0,0)" stroke="rgba(0,0,0,0)" stroke-width="1"/></g><g transform="translate(108.413 40.9)"><path d="M308.849,115.27a1.686,1.686,0,0,0-1.21.461c-.163.156-1.494,2.278-1.572,2.4-.444.681-.692,1.352-.394,1.813a.9.9,0,0,0,.82.373c.216,0,3.19,0,5.752,0a11.7,11.7,0,0,0,.213-2.459,13.025,13.025,0,0,0-.248-2.583h-3.36" transform="translate(-305.543 -115.27)" fill="#f9a81b"/><path d="M308.849,115.27a1.686,1.686,0,0,0-1.21.461c-.163.156-1.494,2.278-1.572,2.4-.444.681-.692,1.352-.394,1.813a.9.9,0,0,0,.82.373c.216,0,3.19,0,5.752,0a11.7,11.7,0,0,0,.213-2.459,13.025,13.025,0,0,0-.248-2.583h-3.36" transform="translate(-305.543 -115.27)" fill="rgba(0,0,0,0)" stroke="rgba(0,0,0,0)" stroke-width="1"/></g><g transform="translate(129.449 30.653)"><path d="M390.853,102.765c-1.756-.018-2.736-.025-2.931-.028a2.055,2.055,0,0,0-1.948,1.288c-.461,1.21-1.632,2.831-4.588,2.867h-3.169q-3.9,0-5.287-1.671-1.368-1.65-1.387-6.06.021-4.407,1.387-6.057,1.389-1.671,5.287-1.671h3.169c2.956.035,4.127,1.653,4.588,2.863a2.05,2.05,0,0,0,1.948,1.288c.294,0,2.64-.025,2.931-.028a1.353,1.353,0,0,0,1.32-1.59,8.4,8.4,0,0,0-1.458-3.555,10.24,10.24,0,0,0-8.569-4.02h-4q-6.658,0-9.985,3.161-3.295,3.124-3.328,9.609.037,6.483,3.328,9.609,3.326,3.161,9.985,3.161h4a10.247,10.247,0,0,0,8.569-4.017,8.416,8.416,0,0,0,1.458-3.555,1.356,1.356,0,0,0-1.32-1.593" transform="translate(-364.83 -86.39)" fill="#5dc579"/><path d="M390.853,102.765c-1.756-.018-2.736-.025-2.931-.028a2.055,2.055,0,0,0-1.948,1.288c-.461,1.21-1.632,2.831-4.588,2.867h-3.169q-3.9,0-5.287-1.671-1.368-1.65-1.387-6.06.021-4.407,1.387-6.057,1.389-1.671,5.287-1.671h3.169c2.956.035,4.127,1.653,4.588,2.863a2.05,2.05,0,0,0,1.948,1.288c.294,0,2.64-.025,2.931-.028a1.353,1.353,0,0,0,1.32-1.59,8.4,8.4,0,0,0-1.458-3.555,10.24,10.24,0,0,0-8.569-4.02h-4q-6.658,0-9.985,3.161-3.295,3.124-3.328,9.609.037,6.483,3.328,9.609,3.326,3.161,9.985,3.161h4a10.247,10.247,0,0,0,8.569-4.017,8.416,8.416,0,0,0,1.458-3.555,1.356,1.356,0,0,0-1.32-1.593" transform="translate(-364.83 -86.39)" fill="rgba(0,0,0,0)" stroke="rgba(0,0,0,0)" stroke-width="1"/></g><g transform="translate(99.094 30.653)"><path d="M280.616,102.765c1.76-.018,2.736-.025,2.931-.028a2.052,2.052,0,0,1,1.948,1.288c.465,1.21,1.632,2.831,4.588,2.867h3.169q3.9,0,5.287-1.671c.915-1.1,1.373-3.122,1.387-6.06-.014-2.938-.472-4.96-1.387-6.057q-1.389-1.671-5.287-1.671h-3.169c-2.956.035-4.123,1.653-4.588,2.863a2.047,2.047,0,0,1-1.948,1.288c-.295,0-2.64-.025-2.931-.028a1.349,1.349,0,0,1-1.316-1.59,8.343,8.343,0,0,1,1.455-3.555,10.245,10.245,0,0,1,8.569-4.02h4q6.658,0,9.988,3.161,3.289,3.124,3.325,9.609-.037,6.483-3.325,9.609-3.332,3.161-9.988,3.161h-4a10.253,10.253,0,0,1-8.569-4.017,8.36,8.36,0,0,1-1.455-3.555,1.352,1.352,0,0,1,1.316-1.593" transform="translate(-279.278 -86.39)" fill="#5dc579"/><path d="M280.616,102.765c1.76-.018,2.736-.025,2.931-.028a2.052,2.052,0,0,1,1.948,1.288c.465,1.21,1.632,2.831,4.588,2.867h3.169q3.9,0,5.287-1.671c.915-1.1,1.373-3.122,1.387-6.06-.014-2.938-.472-4.96-1.387-6.057q-1.389-1.671-5.287-1.671h-3.169c-2.956.035-4.123,1.653-4.588,2.863a2.047,2.047,0,0,1-1.948,1.288c-.295,0-2.64-.025-2.931-.028a1.349,1.349,0,0,1-1.316-1.59,8.343,8.343,0,0,1,1.455-3.555,10.245,10.245,0,0,1,8.569-4.02h4q6.658,0,9.988,3.161,3.289,3.124,3.325,9.609-.037,6.483-3.325,9.609-3.332,3.161-9.988,3.161h-4a10.253,10.253,0,0,1-8.569-4.017,8.36,8.36,0,0,1-1.455-3.555,1.352,1.352,0,0,1,1.316-1.593" transform="translate(-279.278 -86.39)" fill="rgba(0,0,0,0)" stroke="rgba(0,0,0,0)" stroke-width="1"/></g><path transform="translate(0 0)"/><path transform="translate(0 0)"/><path transform="translate(0 0)"/><path transform="translate(0 0)"/><path transform="translate(0 0)"/><path transform="translate(0 0)"/></g></svg>