<svg xmlns="http://www.w3.org/2000/svg" width="249.657" height="53.43" viewBox="0 0 249.657 53.43"><g transform="translate(0)"><path d="M110.461,32.529l1.3-.013a.91.91,0,0,1,.864.571,2,2,0,0,0,2.033,1.271h1.405a2.955,2.955,0,0,0,2.345-.741,4.389,4.389,0,0,0,.615-2.686,4.388,4.388,0,0,0-.615-2.686,2.955,2.955,0,0,0-2.345-.741h-1.405a1.994,1.994,0,0,0-2.033,1.271.91.91,0,0,1-.864.571l-1.3-.013a.6.6,0,0,1-.585-.705,3.715,3.715,0,0,1,.646-1.578,4.545,4.545,0,0,1,3.8-1.781H116.1a6.213,6.213,0,0,1,4.427,1.4A5.666,5.666,0,0,1,122,30.93a5.667,5.667,0,0,1-1.475,4.261,6.214,6.214,0,0,1-4.427,1.4h-1.774a4.544,4.544,0,0,1-3.8-1.781,3.716,3.716,0,0,1-.646-1.577.6.6,0,0,1,.585-.705" transform="translate(-4.777 -5.145)" fill="#f9a81b"/><path d="M206.507,29.264l-1.3.013a.909.909,0,0,1-.864-.571,2,2,0,0,0-2.036-1.271h-1.4a2.959,2.959,0,0,0-2.346.741,4.414,4.414,0,0,0-.614,2.686,4.414,4.414,0,0,0,.614,2.686,2.959,2.959,0,0,0,2.346.741h1.4a2,2,0,0,0,2.036-1.271.91.91,0,0,1,.864-.571l1.3.013a.6.6,0,0,1,.586.705,3.709,3.709,0,0,1-.646,1.577,4.545,4.545,0,0,1-3.8,1.781h-1.774a6.206,6.206,0,0,1-4.427-1.4,5.668,5.668,0,0,1-1.478-4.261,5.668,5.668,0,0,1,1.478-4.261,6.206,6.206,0,0,1,4.427-1.4h1.774a4.545,4.545,0,0,1,3.8,1.781,3.708,3.708,0,0,1,.646,1.577.6.6,0,0,1-.586.705" transform="translate(-4.777 -5.145)" fill="#5dc579"/><path d="M115.607,29.749a.742.742,0,0,0-.535.2c-.071.068-.658,1-.694,1.059-.2.3-.305.6-.173.8a.4.4,0,0,0,.361.165h2.54a5.1,5.1,0,0,0,.093-1.086,5.7,5.7,0,0,0-.109-1.14h-1.484" transform="translate(-4.777 -5.145)" fill="#f9a81b"/><path d="M63.853,25.43a.522.522,0,0,0-.459-.214H61.8a1.015,1.015,0,0,0-.6.2,1.035,1.035,0,0,0-.387.538L59.38,30.029h-.972a2.838,2.838,0,0,1-1.253-.255,2,2,0,0,1-.351-.214,3.448,3.448,0,0,1-1.012-1.427l-.909-2.2a1.054,1.054,0,0,0-1.052-.719H52.165a.459.459,0,0,0-.435.222.419.419,0,0,0-.067.245.813.813,0,0,0,.067.285l1.241,2.848a6.281,6.281,0,0,0,1.913,2.638,3.678,3.678,0,0,0,.927.481,6.43,6.43,0,0,0,2.178.33h.68q-.577,2.047-2.15,2.047H54.772a.745.745,0,0,0-.538.2c-.072.068-.661,1.01-.7,1.064-.2.3-.307.6-.174.8a.4.4,0,0,0,.363.166l2.951,0a4.826,4.826,0,0,0,3.027-.842,5.008,5.008,0,0,0,1.62-2.4l.29-.829L63.9,25.936a.69.69,0,0,0,.04-.221.492.492,0,0,0-.087-.284" transform="translate(-4.777 -5.145)" fill="#5dc579"/><path d="M69.622,31.8h2.885a3.727,3.727,0,0,0,2.016-.447,1.907,1.907,0,0,0,.688-1.723,1.908,1.908,0,0,0-.688-1.723,3.728,3.728,0,0,0-2.016-.446H69.622Zm-2.98,4.015V25.976a.736.736,0,0,1,.213-.53.7.7,0,0,1,.522-.221h6.031q4.774,0,4.778,4.407t-4.778,4.407H69.622v1.778a.742.742,0,0,1-.743.743H67.392a.73.73,0,0,1-.53-.217.711.711,0,0,1-.221-.526" transform="translate(-4.777 -5.145)" fill="#5dc579"/><path d="M83.933,31.588h5V27.462H86.69a2.093,2.093,0,0,0-2.079,1.592Zm-4.191,4.245,1.984-7.525q.806-3.074,5.249-3.083h4.26a.622.622,0,0,1,.486.221.76.76,0,0,1,.194.514v9.872a.686.686,0,0,1-.221.518.745.745,0,0,1-.53.209H89.677a.716.716,0,0,1-.743-.743V33.825h-5.6l-.533,2a.92.92,0,0,1-.358.53.966.966,0,0,1-.588.208H80.29a.546.546,0,0,1-.469-.214.511.511,0,0,1-.111-.324,1.416,1.416,0,0,1,.032-.189" transform="translate(-4.777 -5.145)" fill="#5dc579"/><path d="M94.757,35.9l2.008-7.588q.806-3.074,5.241-3.083h3.952a.594.594,0,0,1,.47.229.785.785,0,0,1,.194.521v9.841a.732.732,0,0,1-.21.526.69.69,0,0,1-.518.217h-1.51a.742.742,0,0,1-.743-.743V27.462h-1.921a2.093,2.093,0,0,0-2.079,1.592l-1.807,6.767a.928.928,0,0,1-.358.53.969.969,0,0,1-.588.208H95.274a.5.5,0,0,1-.429-.206.486.486,0,0,1-.111-.308c0-.047.013-.1.023-.15" transform="translate(-4.777 -5.145)" fill="#5dc579"/><path d="M125.135,35.817V25.976a.722.722,0,0,1,.222-.53.748.748,0,0,1,.547-.221h1.471a.7.7,0,0,1,.522.221.719.719,0,0,1,.219.53v3.557h5.44V25.976a.751.751,0,0,1,.751-.751h1.468a.745.745,0,0,1,.758.751v9.841a.709.709,0,0,1-.222.526.752.752,0,0,1-.536.217h-1.468a.747.747,0,0,1-.533-.209.693.693,0,0,1-.219-.518V31.77h-5.44v4.063a.68.68,0,0,1-.219.518.722.722,0,0,1-.522.209H125.9a.766.766,0,0,1-.54-.217.7.7,0,0,1-.229-.526" transform="translate(-4.777 -5.145)" fill="#f9a81b"/><path d="M139.962,35.793V25.952a.705.705,0,0,1,.219-.522.737.737,0,0,1,.529-.214h9.116a.712.712,0,0,1,.526.221.734.734,0,0,1,.219.53v.743a.745.745,0,0,1-.744.744h-6.886v2.292h5.93a.746.746,0,0,1,.744.746v.745a.746.746,0,0,1-.744.745h-5.93v2.332h6.869a.691.691,0,0,1,.519.213.714.714,0,0,1,.212.522v.758a.709.709,0,0,1-.222.526.73.73,0,0,1-.529.217H140.71a.745.745,0,0,1-.748-.759" transform="translate(-4.777 -5.145)" fill="#f9a81b"/><path d="M156.511,31.794H159.4a3.721,3.721,0,0,0,2.014-.447,1.906,1.906,0,0,0,.688-1.723,1.907,1.907,0,0,0-.688-1.723,3.721,3.721,0,0,0-2.014-.446h-2.886Zm-2.981,4.015V25.967a.73.73,0,0,1,.215-.53.691.691,0,0,1,.519-.221H160.3q4.773,0,4.78,4.407T160.3,34.03h-3.785v1.778a.744.744,0,0,1-.744.743h-1.485a.73.73,0,0,1-.529-.217.709.709,0,0,1-.222-.526" transform="translate(-4.777 -5.145)" fill="#f9a81b"/><path d="M183.107,28.063a4.283,4.283,0,0,0-.8,2.829,4.266,4.266,0,0,0,.8,2.825,4,4,0,0,0,5.165,0,4.285,4.285,0,0,0,.8-2.825,4.3,4.3,0,0,0-.8-2.829,3.986,3.986,0,0,0-5.165,0Zm-2.163,7.318a5.671,5.671,0,0,1-1.619-4.494,5.671,5.671,0,0,1,1.619-4.493,8.663,8.663,0,0,1,9.49,0,5.67,5.67,0,0,1,1.616,4.493,5.67,5.67,0,0,1-1.616,4.494,8.665,8.665,0,0,1-9.49,0" transform="translate(-4.777 -5.145)" fill="#f9a81b"/><path d="M230.923,34.319h-3.256V31.307h3.256q1.328,0,1.33,1.506T230.923,34.319Zm3.087-4.258a4.74,4.74,0,0,0-3.087-.991h-3.256v-3.1a.728.728,0,0,0-.219-.528.7.7,0,0,0-.522-.221h-1.489a.733.733,0,0,0-.751.751V35.8a.753.753,0,0,0,.212.533.659.659,0,0,0,.5.225h5.525a4.757,4.757,0,0,0,3.083-.988,3.331,3.331,0,0,0,1.224-2.751,3.351,3.351,0,0,0-1.221-2.756" transform="translate(-4.777 -5.145)" fill="#5dc579"/><path d="M236.609,35.829V25.971a.719.719,0,0,1,.219-.53.709.709,0,0,1,.522-.221h1.489a.723.723,0,0,1,.536.221.744.744,0,0,1,.215.53v9.841a.7.7,0,0,1-.226.526.727.727,0,0,1-.526.218H237.35a.727.727,0,0,1-.522-.21.679.679,0,0,1-.219-.518" transform="translate(-4.777 -5.145)" fill="#5dc579"/><path d="M254.375,25.391a.39.39,0,0,0-.36-.166l-10.841,0a.733.733,0,0,0-.751.751v.743a.708.708,0,0,0,.215.533.733.733,0,0,0,.536.21H246.7v8.371a.692.692,0,0,0,.219.518.729.729,0,0,0,.526.21h1.5a.721.721,0,0,0,.522-.21.679.679,0,0,0,.219-.518V27.458H253a.753.753,0,0,0,.5-.2c.071-.069.66-1.01.695-1.064.2-.3.307-.6.173-.8" transform="translate(-4.777 -5.145)" fill="#5dc579"/><path d="M177.237,25.392a.4.4,0,0,0-.363-.166l-8.082-.01a.733.733,0,0,0-.751.751v9.857a.683.683,0,0,0,.222.518.745.745,0,0,0,.529.209h1.485a.73.73,0,0,0,.526-.209.693.693,0,0,0,.219-.518v-8.37h4.861a.739.739,0,0,0,.483-.195c.071-.069.663-1.01.7-1.064.194-.3.307-.6.173-.8" transform="translate(-4.777 -5.145)" fill="#f9a81b"/><path d="M47.093,5.306c-.233-.276-.629-.143-.921,0-.427.214-18.638,8.7-23.451,11.08-2.618,1.3-4.065,3.5-2.91,5.91,1.477,3.078,4.955,10.288,4.955,10.288S5.45,56.818,5.116,57.32c-.275.413-.46.839-.244,1.1.232.275.629.142.921,0,.427-.214,28.127-13.966,32.935-16.354a3.488,3.488,0,0,0,1.385-1.236c.459-.714.939-1.457,1.393-2.162a2.517,2.517,0,0,0,.131-2.512c-1.546-3.046-5.9-11.553-5.9-11.553S46.514,6.9,46.848,6.4c.275-.412.46-.839.244-1.1" transform="translate(-4.777 -5.145)" fill="#f9a81b"/><path d="M218.4,33.788a.853.853,0,0,1-.145.191,1.335,1.335,0,0,1-.995.34h-3.905V31.6h3.905a2.069,2.069,0,0,1,.349.03c.035.006.064.015.1.023a1.324,1.324,0,0,1,.2.063c.032.013.064.028.092.043a.952.952,0,0,1,.162.106c.021.018.046.034.067.053a1.105,1.105,0,0,1,.173.213,1.588,1.588,0,0,1,.092.21l.021.07a1.455,1.455,0,0,1,.042.184c0,.026.007.051.011.078a2.447,2.447,0,0,1,.018.287,1.891,1.891,0,0,1-.092.615,1,1,0,0,1-.1.213Zm1.979-3.517a5,5,0,0,0-3.119-.908h-3.905v-1.9h5.68a.74.74,0,0,0,.5-.2c.071-.069.66-1.01.695-1.064.2-.3.307-.6.176-.8a.4.4,0,0,0-.363-.166l-8.922,0a.733.733,0,0,0-.751.751v9.857a.707.707,0,0,0,.2.518.669.669,0,0,0,.508.21h6.174a5.022,5.022,0,0,0,3.115-.906,3.165,3.165,0,0,0,1.192-2.688,3.173,3.173,0,0,0-1.189-2.691" transform="translate(-4.777 -5.145)" fill="#5dc579"/></g></svg>