<svg xmlns="http://www.w3.org/2000/svg" width="42.409" height="53.435" viewBox="0 0 42.409 53.435"><g transform="translate(0)"><path d="M47.093,5.306c-.233-.276-.629-.143-.921,0-.427.214-18.638,8.7-23.451,11.08-2.618,1.3-4.065,3.5-2.91,5.91,1.477,3.078,4.955,10.288,4.955,10.288S5.45,56.818,5.116,57.32c-.275.413-.46.839-.244,1.1.232.275.629.142.921,0,.427-.214,28.127-13.966,32.935-16.354a3.488,3.488,0,0,0,1.385-1.236c.459-.714.939-1.457,1.393-2.162a2.517,2.517,0,0,0,.131-2.512c-1.546-3.046-5.9-11.553-5.9-11.553S46.514,6.9,46.848,6.4c.275-.412.46-.839.244-1.1" transform="translate(-4.777 -5.145)" fill="#f9a81b"/></g></svg>